<svg width="28" height="28" viewBox="0 0 28 28" fill="none" xmlns="http://www.w3.org/2000/svg">
<path d="M22.75 3.5H20.125V2.625C20.125 2.39294 20.0328 2.17038 19.8687 2.00628C19.7046 1.84219 19.4821 1.75 19.25 1.75C19.0179 1.75 18.7954 1.84219 18.6313 2.00628C18.4672 2.17038 18.375 2.39294 18.375 2.625V3.5H9.625V2.625C9.625 2.39294 9.53281 2.17038 9.36872 2.00628C9.20462 1.84219 8.98206 1.75 8.75 1.75C8.51794 1.75 8.29538 1.84219 8.13128 2.00628C7.96719 2.17038 7.875 2.39294 7.875 2.625V3.5H5.25C4.78587 3.5 4.34075 3.68437 4.01256 4.01256C3.68437 4.34075 3.5 4.78587 3.5 5.25V22.75C3.5 23.2141 3.68437 23.6592 4.01256 23.9874C4.34075 24.3156 4.78587 24.5 5.25 24.5H22.75C23.2141 24.5 23.6592 24.3156 23.9874 23.9874C24.3156 23.6592 24.5 23.2141 24.5 22.75V5.25C24.5 4.78587 24.3156 4.34075 23.9874 4.01256C23.6592 3.68437 23.2141 3.5 22.75 3.5ZM7.875 5.25V6.125C7.875 6.35706 7.96719 6.57962 8.13128 6.74372C8.29538 6.90781 8.51794 7 8.75 7C8.98206 7 9.20462 6.90781 9.36872 6.74372C9.53281 6.57962 9.625 6.35706 9.625 6.125V5.25H18.375V6.125C18.375 6.35706 18.4672 6.57962 18.6313 6.74372C18.7954 6.90781 19.0179 7 19.25 7C19.4821 7 19.7046 6.90781 19.8687 6.74372C20.0328 6.57962 20.125 6.35706 20.125 6.125V5.25H22.75V8.75H5.25V5.25H7.875ZM22.75 22.75H5.25V10.5H22.75V22.75ZM18.5566 13.3809C18.6379 13.4622 18.7025 13.5587 18.7465 13.6649C18.7905 13.7712 18.8132 13.885 18.8132 14C18.8132 14.115 18.7905 14.2288 18.7465 14.3351C18.7025 14.4413 18.6379 14.5378 18.5566 14.6191L13.3066 19.8691C13.2253 19.9504 13.1288 20.015 13.0226 20.059C12.9163 20.103 12.8025 20.1257 12.6875 20.1257C12.5725 20.1257 12.4587 20.103 12.3524 20.059C12.2462 20.015 12.1497 19.9504 12.0684 19.8691L9.44344 17.2441C9.27925 17.0799 9.18701 16.8572 9.18701 16.625C9.18701 16.3928 9.27925 16.1701 9.44344 16.0059C9.60762 15.8418 9.83031 15.7495 10.0625 15.7495C10.2947 15.7495 10.5174 15.8418 10.6816 16.0059L12.6875 18.013L17.3184 13.3809C17.3997 13.2996 17.4962 13.235 17.6024 13.191C17.7087 13.147 17.8225 13.1243 17.9375 13.1243C18.0525 13.1243 18.1663 13.147 18.2726 13.191C18.3788 13.235 18.4753 13.2996 18.5566 13.3809Z" fill="black"/>
</svg>
